<?xml version="1.0" standalone="no"?>
<!DOCTYPE svg PUBLIC "-//W3C//DTD SVG 20010904//EN"
 "http://www.w3.org/TR/2001/REC-SVG-20010904/DTD/svg10.dtd">
<svg version="1.0" xmlns="http://www.w3.org/2000/svg"
 width="48.000000pt" height="48.000000pt" viewBox="0 0 48.000000 48.000000"
 preserveAspectRatio="xMidYMid meet">

<g transform="translate(0.000000,48.000000) scale(0.100000,-0.100000)"
fill="#000000" stroke="none">
<path d="M166 470 c-15 -5 -46 -21 -68 -36 -36 -25 -38 -29 -23 -40 9 -7 14
-17 10 -23 -3 -6 1 -11 9 -11 9 0 16 4 16 8 0 7 52 42 64 42 3 0 3 -7 -1 -16
-5 -14 -3 -15 15 -5 11 6 24 16 27 21 3 6 14 10 23 10 15 0 15 -2 2 -10 -13
-8 -13 -10 2 -10 11 0 20 11 25 30 l8 29 33 -20 c17 -12 32 -27 32 -35 0 -11
-6 -10 -22 6 -12 11 -24 17 -27 14 -3 -3 2 -11 12 -18 9 -7 17 -18 17 -25 0
-6 5 -11 10 -11 7 0 7 -6 0 -20 -6 -11 -20 -20 -31 -20 -16 0 -18 -5 -13 -27
4 -16 15 -37 26 -49 16 -18 17 -23 4 -33 -7 -6 -12 -20 -9 -30 7 -29 -23 -47
-58 -34 -26 10 -29 9 -29 -8 0 -12 -6 -18 -17 -17 -10 1 -27 0 -38 -1 -20 -2
-20 -2 -1 -16 19 -15 19 -15 -1 -15 -26 0 -50 26 -31 33 18 6 -1 25 -28 30
-52 8 -95 63 -64 82 6 4 4 15 -6 30 -10 16 -14 35 -10 52 6 26 5 26 -6 8 -19
-30 -16 -163 4 -201 22 -41 71 -90 112 -112 43 -23 169 -23 212 0 75 41 123
110 131 192 5 52 -16 160 -25 121 -2 -11 -11 -26 -20 -33 -9 -7 -11 -12 -4
-12 20 0 13 -17 -9 -23 -12 -3 -18 -10 -14 -16 10 -17 -11 -13 -26 5 -11 14
-10 18 6 30 10 8 15 14 9 14 -5 0 2 9 16 20 14 11 20 20 13 20 -8 0 -10 11 -6
33 4 30 1 36 -34 60 -65 45 -145 58 -217 37z m244 -288 c0 -17 -38 -52 -56
-52 -14 0 -15 -3 -6 -9 10 -6 10 -10 -3 -21 -8 -7 -15 -9 -15 -6 0 4 -7 0 -16
-8 -16 -17 -44 -22 -44 -8 0 5 7 17 16 28 8 10 12 13 8 5 -4 -9 -2 -12 7 -9 8
3 13 11 11 18 -3 15 17 42 27 35 4 -2 21 5 37 15 35 22 34 22 34 12z"/>
<path d="M55 300 c-11 -17 5 -32 21 -19 7 6 11 15 8 20 -7 12 -21 11 -29 -1z"/>
</g>
</svg>
